<svg xmlns="http://www.w3.org/2000/svg" viewBox="0 0 126.04 128.16"><g id="Capa_2" data-name="Capa 2"><g id="Capa_1-2" data-name="Capa 1"><path d="M77.21,3.73V5.79A61,61,0,1,1,49.5,5.62l.26,0v-2c-.23.05-.47.08-.7.14a63,63,0,1,0,28.15.06Z"/><circle cx="63.87" cy="2.3" r="2.3"/><path d="M38.28,50.69a29.63,29.63,0,0,1,51.85,0h2.26a31.63,31.63,0,0,0-56.37,0Z"/><path d="M90.13,79.43a29.63,29.63,0,0,1-51.85,0H36a31.63,31.63,0,0,0,56.37,0Z"/><path d="M34.09,26.74a3.53,3.53,0,0,1,2.12-.83,2.09,2.09,0,0,1,1.7.95,1.85,1.85,0,0,1,.43,1.38,2.77,2.77,0,0,1-.57,1.28,2.47,2.47,0,0,1,.78-.26,2.15,2.15,0,0,1,.8,0,2.4,2.4,0,0,1,.77.31,2.76,2.76,0,0,1,.68.65,2.28,2.28,0,0,1,.44,1,2.48,2.48,0,0,1-.07,1.08,3.35,3.35,0,0,1-.52,1.08,4.42,4.42,0,0,1-1,1L37.5,36l-5.68-7.55Zm1.21,4,.9-.67a4.2,4.2,0,0,0,.54-.48,1.82,1.82,0,0,0,.35-.55,1.34,1.34,0,0,0,.07-.6,1.47,1.47,0,0,0-.31-.68,1.19,1.19,0,0,0-1-.55,2.23,2.23,0,0,0-1.24.52l-1,.75Zm2.64,3.52,1-.72a3.39,3.39,0,0,0,.58-.55,1.71,1.71,0,0,0,.36-.62,1.29,1.29,0,0,0,.06-.68,1.64,1.64,0,0,0-.34-.74,1.29,1.29,0,0,0-.62-.49,1.64,1.64,0,0,0-.73-.09,2.59,2.59,0,0,0-.77.23,5.33,5.33,0,0,0-.72.44l-.77.58Z"/><path d="M44.42,20.72a5.08,5.08,0,0,1,1.75-.39,3.71,3.71,0,0,1,1.65.31,4.13,4.13,0,0,1,1.43,1,6.39,6.39,0,0,1,1.12,1.84,5.94,5.94,0,0,1,.48,2.06,4.39,4.39,0,0,1-.29,1.77,3.81,3.81,0,0,1-1,1.4,4.66,4.66,0,0,1-1.52,1,4.88,4.88,0,0,1-1.75.4,4,4,0,0,1-1.65-.31,4.13,4.13,0,0,1-1.43-1,6,6,0,0,1-1.11-1.83,5.75,5.75,0,0,1-.49-2.07,4.42,4.42,0,0,1,.29-1.77,3.94,3.94,0,0,1,1-1.4A5,5,0,0,1,44.42,20.72Zm-.9,5.63a5.49,5.49,0,0,0,.85,1.45,3.32,3.32,0,0,0,1,.84,2.58,2.58,0,0,0,1.14.27,3.11,3.11,0,0,0,1.16-.23,3.05,3.05,0,0,0,1-.65,2.49,2.49,0,0,0,.59-1,3.3,3.3,0,0,0,.13-1.32,6.26,6.26,0,0,0-1.29-3.1,3.15,3.15,0,0,0-1-.83A2.37,2.37,0,0,0,46,21.53a2.94,2.94,0,0,0-1.16.24,2.9,2.9,0,0,0-1,.65,2.4,2.4,0,0,0-.6,1,3.5,3.5,0,0,0-.12,1.32A5.59,5.59,0,0,0,43.52,26.35Z"/><path d="M53,18.06l1.36-.2.81,5.6A3.36,3.36,0,0,0,56,25.52a2.24,2.24,0,0,0,1.86.38,2.11,2.11,0,0,0,1.66-1,3.06,3.06,0,0,0,.29-2L59,17.19,60.36,17l.82,5.73a3.73,3.73,0,0,1-.57,3,4.52,4.52,0,0,1-5.41.78,3.88,3.88,0,0,1-1.39-2.78Z"/><path d="M68.68,25.62a5.5,5.5,0,0,0,1.25,0,6.07,6.07,0,0,0,1-.27l.23,1.13a4.77,4.77,0,0,1-1.17.29,7.76,7.76,0,0,1-1.53,0,4.75,4.75,0,0,1-1.73-.44,4.05,4.05,0,0,1-1.36-1,4.47,4.47,0,0,1-.84-1.59,6.32,6.32,0,0,1,.3-4.15,4.39,4.39,0,0,1,1.06-1.45,4,4,0,0,1,1.51-.84,5.12,5.12,0,0,1,1.85-.18,6.26,6.26,0,0,1,1.52.26,5.51,5.51,0,0,1,1.07.48l-.4,1.06-.52-.26a3.19,3.19,0,0,0-.48-.19,4.07,4.07,0,0,0-.5-.13,4.78,4.78,0,0,0-.59-.07,3.59,3.59,0,0,0-1.27.11,2.57,2.57,0,0,0-1.08.57A3.36,3.36,0,0,0,66.2,20a4.73,4.73,0,0,0-.38,1.69,5,5,0,0,0,.12,1.74,3.25,3.25,0,0,0,.6,1.19,2.67,2.67,0,0,0,.95.71A3.58,3.58,0,0,0,68.68,25.62Z"/><path d="M73.21,27.16l2.54-9.1,1.33.37L76,22.25l4.32,1.21,1.07-3.83,1.33.37-2.54,9.1-1.33-.37L80,24.58l-4.32-1.2-1.16,4.15Z"/><path d="M87.4,22l5,2.78-.56,1-3.77-2.11-1.38,2.48,3.43,1.91-.55,1-3.43-1.91-1.57,2.8,3.82,2.13-.56,1-5-2.8Zm3.13.37-1-.52,2-1,1.35.75Z"/><path d="M96.14,27.65l4.07,4-.8.82-3.09-3-2,2,2.81,2.75-.78.81-2.81-2.75-2.25,2.29,3.12,3.05-.79.82-4.11-4Z"/><path d="M49.85,109.71A5.59,5.59,0,0,0,51,110a5.17,5.17,0,0,0,1,0l0,1.07a4.19,4.19,0,0,1-1.12,0,8,8,0,0,1-1.39-.33,4.71,4.71,0,0,1-1.47-.78,3.73,3.73,0,0,1-1-1.24A3.89,3.89,0,0,1,46.5,107a5.4,5.4,0,0,1,.28-2,5.34,5.34,0,0,1,.9-1.73A4.27,4.27,0,0,1,49,102.25a3.69,3.69,0,0,1,1.55-.42,5,5,0,0,1,1.72.23,5.26,5.26,0,0,1,2.19,1.25l-.61.87c-.14-.13-.28-.24-.41-.35a4.73,4.73,0,0,0-.39-.28,3.48,3.48,0,0,0-.43-.22,3.78,3.78,0,0,0-.52-.2A3.4,3.4,0,0,0,50.9,103a2.46,2.46,0,0,0-1.1.28,3.09,3.09,0,0,0-1,.83,4.74,4.74,0,0,0-.73,1.46,5,5,0,0,0-.27,1.6,3,3,0,0,0,.28,1.21,2.54,2.54,0,0,0,.71.85A3.3,3.3,0,0,0,49.85,109.71Z"/><path d="M55.53,112.11l1-8.77,1.28.14-.4,3.69,4.16.45.4-3.68,1.29.13-1,8.77L61,112.7l.43-4-4.16-.46-.43,4Z"/><path d="M67.7,104l-.11,8.82H66.31l.1-8.82Z"/><path d="M76,110.41a4.91,4.91,0,0,0,1.09-.41,4.5,4.5,0,0,0,.79-.55l.55.93a4.51,4.51,0,0,1-.94.62,8.1,8.1,0,0,1-1.34.48,4.48,4.48,0,0,1-1.66.14,3.83,3.83,0,0,1-1.52-.49A4,4,0,0,1,71.72,110a5.2,5.2,0,0,1-.83-1.79,5.61,5.61,0,0,1-.2-2,4.21,4.21,0,0,1,.49-1.61,3.71,3.71,0,0,1,1.07-1.2,4.74,4.74,0,0,1,1.57-.74,6.26,6.26,0,0,1,1.42-.24,5.63,5.63,0,0,1,1.1.1l0,1-.53-.07-.49,0a4.35,4.35,0,0,0-.48,0,4.71,4.71,0,0,0-.54.11,3.78,3.78,0,0,0-1.08.49,2.48,2.48,0,0,0-.77.84,3.06,3.06,0,0,0-.35,1.22,4.76,4.76,0,0,0,.18,1.61,4.87,4.87,0,0,0,.65,1.5,3,3,0,0,0,.9.86,2.44,2.44,0,0,0,1,.33A3.17,3.17,0,0,0,76,110.41Z"/><path d="M27.17,61.46a7.27,7.27,0,0,1,1.25.11,4.45,4.45,0,0,1,1.19.38L29.3,63a5.58,5.58,0,0,0-1.09-.39,4,4,0,0,0-1-.12,2,2,0,0,0-1.26.35,1.15,1.15,0,0,0-.46,1,1.1,1.1,0,0,0,.34.85,2.81,2.81,0,0,0,1.13.56l.88.28a3.34,3.34,0,0,1,1.7,1,2.35,2.35,0,0,1,.5,1.46,2.28,2.28,0,0,1-.24,1,2.21,2.21,0,0,1-.64.79,3,3,0,0,1-1,.51,4.4,4.4,0,0,1-1.23.17,8,8,0,0,1-1.37-.12A5.27,5.27,0,0,1,24.23,70l.31-1a5.87,5.87,0,0,0,1.18.44,5.19,5.19,0,0,0,1.2.14,2.35,2.35,0,0,0,1.29-.35,1.18,1.18,0,0,0,.53-1,1.45,1.45,0,0,0-.08-.47,1.23,1.23,0,0,0-.26-.41,2.4,2.4,0,0,0-.51-.37,6.42,6.42,0,0,0-.82-.32l-.88-.28a3.39,3.39,0,0,1-1.48-.84A1.94,1.94,0,0,1,24.19,64,2.33,2.33,0,0,1,25,62.14,3.26,3.26,0,0,1,27.17,61.46Z"/><path d="M34.24,61.59v8.82H33V61.59Z"/><path d="M37.66,61.59h1.12l4,5.58.44.63c.14.22.26.43.38.63h0c0-.32,0-.65,0-1s0-.65,0-1V61.59h1.26v8.82H43.72l-4-5.52c-.14-.2-.28-.42-.43-.66s-.29-.5-.42-.74h0c0,.39,0,.78,0,1.18s0,.78,0,1.17v4.57H37.66Z"/><path d="M52.1,69.47a5.24,5.24,0,0,0,1.16-.11,5.45,5.45,0,0,0,.9-.33l.3,1a4.2,4.2,0,0,1-1.07.35,8.23,8.23,0,0,1-1.43.11,4.66,4.66,0,0,1-1.63-.29A3.79,3.79,0,0,1,49,69.37a4.11,4.11,0,0,1-.9-1.42,5.39,5.39,0,0,1-.33-2,5.31,5.31,0,0,1,.33-1.93A4.08,4.08,0,0,1,49,62.64a3.68,3.68,0,0,1,1.35-.88,4.71,4.71,0,0,1,1.7-.3,6.21,6.21,0,0,1,1.43.14,4.75,4.75,0,0,1,1,.38l-.31,1-.5-.21a2.44,2.44,0,0,0-.46-.14,3.55,3.55,0,0,0-.47-.09,4.73,4.73,0,0,0-.56,0,3.77,3.77,0,0,0-1.17.19,2.43,2.43,0,0,0-1,.61,2.87,2.87,0,0,0-.66,1.09,5.38,5.38,0,0,0,0,3.21A2.83,2.83,0,0,0,50,68.68a2.44,2.44,0,0,0,.93.6A3.23,3.23,0,0,0,52.1,69.47Z"/><path d="M57.13,61.59h5.32v1.06h-4V65.3h3.67v1H58.42v3h4.07v1.07H57.13Z"/><path d="M71.65,62.47a2.47,2.47,0,0,0-.86.15,3.77,3.77,0,0,0-.89.53l-.55-.82a3.3,3.3,0,0,1,1.2-.7,3.93,3.93,0,0,1,1.1-.17,3.6,3.6,0,0,1,1.25.2,2.55,2.55,0,0,1,.88.56,2.18,2.18,0,0,1,.51.82,3,3,0,0,1,.17,1,2.79,2.79,0,0,1-.21,1,5.81,5.81,0,0,1-.59,1.08,12.32,12.32,0,0,1-.93,1.14c-.37.4-.78.82-1.24,1.26l-.82.79h4v1h-5.3l-.23-.89,1.16-1.16c.52-.51,1-1,1.33-1.37a9.56,9.56,0,0,0,.9-1.11A4.56,4.56,0,0,0,73,65a2.28,2.28,0,0,0,.16-.84,1.82,1.82,0,0,0-.38-1.18A1.41,1.41,0,0,0,71.65,62.47Z"/><path d="M80.5,61.46a3.57,3.57,0,0,1,1.35.26,2.86,2.86,0,0,1,1.1.8,4.25,4.25,0,0,1,.72,1.41A7.35,7.35,0,0,1,83.93,66a6.88,6.88,0,0,1-.28,2.06,4,4,0,0,1-.76,1.41,3,3,0,0,1-1.09.8,3.21,3.21,0,0,1-1.3.26,3.41,3.41,0,0,1-1.37-.26,2.8,2.8,0,0,1-1.08-.8,4,4,0,0,1-.73-1.41A7.3,7.3,0,0,1,77.07,66a6.38,6.38,0,0,1,.28-2,4.33,4.33,0,0,1,.74-1.42,3.17,3.17,0,0,1,1.1-.84A3.23,3.23,0,0,1,80.5,61.46ZM78.35,66a6.93,6.93,0,0,0,.19,1.8A3.21,3.21,0,0,0,79,68.88a1.6,1.6,0,0,0,.69.54,2.24,2.24,0,0,0,.81.15,2.15,2.15,0,0,0,.8-.16,1.55,1.55,0,0,0,.68-.58,3,3,0,0,0,.47-1.1A7,7,0,0,0,82.64,66a7.46,7.46,0,0,0-.18-1.8A3.26,3.26,0,0,0,82,63.11a1.6,1.6,0,0,0-.69-.54,2.46,2.46,0,0,0-.81-.14,2,2,0,0,0-.8.16,1.53,1.53,0,0,0-.68.57,3.31,3.31,0,0,0-.47,1.1A7,7,0,0,0,78.35,66Z"/><path d="M88.64,61.59h.9v8.82h-1.2V62.87l-1.59.73-.28-1Z"/><path d="M96,61.46a3.58,3.58,0,0,1,1.36.26,2.83,2.83,0,0,1,1.09.8,3.9,3.9,0,0,1,.72,1.41A7.35,7.35,0,0,1,99.45,66a6.58,6.58,0,0,1-.28,2.06,4.18,4.18,0,0,1-.75,1.41,3,3,0,0,1-1.1.8,3.18,3.18,0,0,1-1.3.26,3.37,3.37,0,0,1-1.36-.26,2.83,2.83,0,0,1-1.09-.8,3.82,3.82,0,0,1-.72-1.41A7.27,7.27,0,0,1,92.59,66a6.38,6.38,0,0,1,.28-2,4.55,4.55,0,0,1,.75-1.42,3.14,3.14,0,0,1,1.09-.84A3.27,3.27,0,0,1,96,61.46ZM93.88,66a7.46,7.46,0,0,0,.18,1.8,3,3,0,0,0,.48,1.08,1.52,1.52,0,0,0,.68.54,2.29,2.29,0,0,0,.82.15,2.19,2.19,0,0,0,.8-.16,1.61,1.61,0,0,0,.68-.58,3.22,3.22,0,0,0,.47-1.1A7,7,0,0,0,98.16,66,7.46,7.46,0,0,0,98,64.2a3.27,3.27,0,0,0-.47-1.09,1.6,1.6,0,0,0-.69-.54,2.46,2.46,0,0,0-.81-.14,2.05,2.05,0,0,0-.81.16,1.64,1.64,0,0,0-.68.57,3.53,3.53,0,0,0-.47,1.1A7.62,7.62,0,0,0,93.88,66Z"/></g></g></svg>