<svg xmlns="http://www.w3.org/2000/svg" viewBox="0 0 101.09 10.37"><defs><style>.cls-1{fill:#fff;}</style></defs><g id="Capa_2" data-name="Capa 2"><g id="Capa_1-2" data-name="Capa 1"><path class="cls-1" d="M7.16,7.35c0,1.73-1.22,2.83-3.48,2.83H.49A.49.49,0,0,1,0,9.68V.88A.49.49,0,0,1,.49.38H3.32C5.56.38,6.78,1.44,6.78,3A2.17,2.17,0,0,1,5.7,5V5A2.4,2.4,0,0,1,7.16,7.35ZM1.89,2V4.45H3.32c.87,0,1.55-.33,1.55-1.24S4.15,2,3.32,2ZM5.22,7.23C5.22,6.3,4.52,6,3.68,6H1.89V8.54H3.68C4.58,8.54,5.22,8.1,5.22,7.23Z"/><path class="cls-1" d="M16.76,6.64a3.75,3.75,0,0,1-7.49,0A3.68,3.68,0,0,1,13,2.91,3.68,3.68,0,0,1,16.76,6.64Zm-1.82,0a1.93,1.93,0,1,0-3.85,0,1.93,1.93,0,1,0,3.85,0Z"/><path class="cls-1" d="M25.15,3.08a.5.5,0,0,1,.5.51V9.68a.5.5,0,0,1-.5.5h-.79a.5.5,0,0,1-.49-.5V9.31a2.35,2.35,0,0,1-2.06,1c-1.79,0-2.6-1.44-2.6-2.94V3.59a.5.5,0,0,1,.49-.51h.78a.5.5,0,0,1,.49.51V7c0,.91.39,1.6,1.39,1.6A1.46,1.46,0,0,0,23.87,7V3.59a.51.51,0,0,1,.49-.51Z"/><path class="cls-1" d="M33.31,8a.37.37,0,0,1,.47-.09l.9.52a.37.37,0,0,1,.11.55,3.73,3.73,0,1,1,0-4.69.38.38,0,0,1-.11.56l-.9.5a.36.36,0,0,1-.47-.08,1.85,1.85,0,0,0-1.46-.65,1.9,1.9,0,0,0-1.93,2,1.92,1.92,0,0,0,1.93,2A1.86,1.86,0,0,0,33.31,8Z"/><path class="cls-1" d="M43.72,5.87V9.68a.5.5,0,0,1-.5.5h-.77a.5.5,0,0,1-.51-.5V6.23c0-.91-.37-1.59-1.38-1.59a1.46,1.46,0,0,0-1.51,1.59V9.68a.49.49,0,0,1-.49.5h-.79a.49.49,0,0,1-.49-.5V.88a.49.49,0,0,1,.49-.5h.79a.49.49,0,0,1,.49.5V4a2.36,2.36,0,0,1,2.07-1C42.91,2.91,43.72,4.36,43.72,5.87Z"/><path class="cls-1" d="M53.36,6.84a.5.5,0,0,1-.49.49H48.06a2,2,0,0,0,2,1.44,2.15,2.15,0,0,0,1.4-.51.36.36,0,0,1,.43,0l.8.48a.38.38,0,0,1,.07.59,3.83,3.83,0,0,1-2.7,1.06,3.64,3.64,0,0,1-3.91-3.71A3.6,3.6,0,0,1,49.8,2.91,3.49,3.49,0,0,1,53.36,6.84ZM51.59,6A1.65,1.65,0,0,0,49.83,4.5,1.76,1.76,0,0,0,48.06,6ZM51.24,0a.25.25,0,0,1,.21.39l-.94,1.36a.52.52,0,0,1-.4.21h-.79a.26.26,0,0,1-.24-.35L49.7.28A.52.52,0,0,1,50.16,0Z"/><path class="cls-1" d="M62.58,6.84a.5.5,0,0,1-.49.49h-4.8a2,2,0,0,0,2,1.44,2.13,2.13,0,0,0,1.4-.51.38.38,0,0,1,.44,0l.8.48a.38.38,0,0,1,.07.59,3.85,3.85,0,0,1-2.71,1.06,3.63,3.63,0,0,1-3.9-3.71A3.6,3.6,0,0,1,59,2.91,3.48,3.48,0,0,1,62.58,6.84ZM60.82,6A1.67,1.67,0,0,0,59.05,4.5,1.75,1.75,0,0,0,57.29,6Z"/><path class="cls-1" d="M76.62,7.79a.5.5,0,0,1,.62-.06l.74.49a.49.49,0,0,1,.07.77,4.84,4.84,0,0,1-3.47,1.36,4.89,4.89,0,0,1-5-5.07,4.9,4.9,0,0,1,5-5.08,4.85,4.85,0,0,1,3.47,1.37.49.49,0,0,1-.07.77l-.74.49a.5.5,0,0,1-.62-.06,2.94,2.94,0,0,0-2-.75A3.07,3.07,0,0,0,71.5,5.28a3.07,3.07,0,0,0,3.08,3.26A2.94,2.94,0,0,0,76.62,7.79Z"/><path class="cls-1" d="M87.22,5.87V9.68a.5.5,0,0,1-.5.5H86a.5.5,0,0,1-.51-.5V6.23c0-.91-.38-1.59-1.38-1.59a1.46,1.46,0,0,0-1.52,1.59V9.68a.49.49,0,0,1-.49.5h-.78a.49.49,0,0,1-.49-.5V.88a.49.49,0,0,1,.49-.5h.78a.49.49,0,0,1,.49.5V4a2.38,2.38,0,0,1,2.08-1C86.41,2.91,87.22,4.36,87.22,5.87Z"/><path class="cls-1" d="M90,1.09a.95.95,0,1,1,1.89,0,.95.95,0,1,1-1.89,0Zm.06,8.59V3.59a.5.5,0,0,1,.5-.51h.77a.51.51,0,0,1,.51.51V9.68a.5.5,0,0,1-.51.5h-.77A.5.5,0,0,1,90.09,9.68Z"/><path class="cls-1" d="M99.53,8a.37.37,0,0,1,.47-.09l.9.52A.37.37,0,0,1,101,9a3.73,3.73,0,1,1,0-4.69.39.39,0,0,1-.11.56l-.9.5a.36.36,0,0,1-.47-.08,1.85,1.85,0,0,0-1.46-.65,1.9,1.9,0,0,0-1.93,2,1.92,1.92,0,0,0,1.93,2A1.86,1.86,0,0,0,99.53,8Z"/></g></g></svg>