<svg xmlns="http://www.w3.org/2000/svg" xmlns:xlink="http://www.w3.org/1999/xlink" width="500" zoomAndPan="magnify" viewBox="0 0 375 374.999991" height="500" preserveAspectRatio="xMidYMid meet" version="1.0"><path fill="#b7b9bb" d="M 335.382812 -16.054688 L 29.476562 -16.054688 C -3.664062 -16.054688 -30.800781 10.65625 -31.613281 43.617188 C -31.625 44.113281 -31.691406 44.609375 -31.691406 45.117188 L -31.691406 351.011719 C -31.691406 384.664062 -4.171875 412.191406 29.476562 412.191406 L 335.382812 412.191406 C 368.523438 412.191406 395.664062 385.460938 396.472656 352.519531 L 396.472656 43.617188 C 395.664062 10.65625 368.511719 -16.054688 335.382812 -16.054688 " fill-opacity="1" fill-rule="nonzero"/><path fill="#c8bba1" d="M 349.421875 383.917969 L 304.578125 390.042969 L 300.269531 376.269531 L 310.617188 370.921875 L 304.578125 358.675781 L 321.828125 347.210938 L 349.421875 383.917969 M 317.140625 336.136719 C 305.886719 345.484375 298.722656 356.199219 295.839844 368.167969 C 292.171875 383.46875 297.21875 399.980469 302.792969 412.191406 L 311.054688 412.191406 L 308.890625 407.636719 L 328.730469 405.335938 L 329.511719 412.191406 L 335.382812 412.191406 C 337.230469 412.191406 339.050781 412.070312 340.867188 411.898438 L 338.21875 403.808594 L 360.632812 397.679688 L 364.023438 405.003906 C 365.675781 404.113281 367.277344 403.160156 368.832031 402.128906 C 353.351562 376.785156 335.984375 354.652344 317.140625 336.136719 " fill-opacity="1" fill-rule="nonzero"/><path fill="#c8bba1" d="M 19.347656 -15.140625 C 8.636719 -13.335938 -1.148438 -8.757812 -9.222656 -2.121094 L 15.195312 2.851562 L 19.347656 -15.140625 " fill-opacity="1" fill-rule="nonzero"/><path fill="#c8bba1" d="M 49.300781 9.800781 L 63.203125 -11.441406 C 55.691406 -13.042969 48.410156 -14.582031 41.503906 -16.0625 L 32.753906 -16.0625 L 27.808594 5.421875 L 49.300781 9.800781 " fill-opacity="1" fill-rule="nonzero"/><path fill="#c8bba1" d="M 387.070312 383.429688 C 388.875 380.558594 390.460938 377.539062 391.777344 374.378906 C 390.652344 374.601562 389.949219 374.746094 389.949219 374.746094 L 356.316406 328.855469 L 396.472656 304.949219 L 396.472656 294.339844 L 339.199219 323.761719 C 356.449219 341.132812 372.546875 361.175781 387.070312 383.429688 " fill-opacity="1" fill-rule="nonzero"/><path fill="#c8bba1" d="M 184.804688 6.167969 C 200.296875 9.277344 215.894531 14.050781 225.070312 27.824219 C 226.742188 30.328125 228.121094 33.042969 229.230469 35.964844 L 241.066406 -10.984375 C 239.996094 -12.792969 238.945312 -14.464844 237.914062 -16.0625 L 224.617188 -16.0625 L 220.9375 1.480469 L 207.996094 -6.917969 L 209.605469 -16.0625 L 196.90625 -16.0625 L 191.613281 -0.0429688 L 116.480469 -16.0625 L 81.195312 -16.0625 L 80.863281 -15.558594 C 120.472656 -7.152344 162.726562 1.742188 184.804688 6.167969 " fill-opacity="1" fill-rule="nonzero"/><path fill="#c8bba1" d="M 5.882812 43.355469 L 12.613281 14.09375 L -18.714844 7.714844 C -19.644531 8.921875 -20.550781 10.136719 -21.390625 11.40625 L -27.773438 36.386719 L 5.882812 43.355469 " fill-opacity="1" fill-rule="nonzero"/><path fill="#c8bba1" d="M 144.28125 53.785156 L 163.078125 58.390625 L 164.984375 52.253906 L 207.371094 62.648438 L 205.308594 69.277344 L 186.519531 64.679688 L 184.613281 70.804688 L 142.226562 60.410156 L 144.28125 53.785156 M 132.113281 59.617188 L 116.582031 59.617188 L 116.582031 55.03125 L 84.6875 55.03125 L 84.6875 40.496094 L 128.667969 40.496094 L 128.667969 49.671875 L 132.113281 49.671875 L 132.113281 59.617188 M 164.816406 76.257812 L 216.050781 88.25 L 223.789062 57.535156 C 223.789062 57.390625 223.796875 57.242188 223.8125 57.097656 L 57.628906 23.257812 L 51.539062 52.804688 L 164.714844 76.230469 L 164.816406 76.257812 " fill-opacity="1" fill-rule="nonzero"/><path fill="#c8bba1" d="M 92.261719 73.011719 L 85.0625 104.617188 L 121.804688 112.214844 C 120.0625 110.074219 118.585938 107.820312 117.417969 105.40625 C 112.375 94.953125 114.316406 84.539062 116.558594 78.042969 L 92.261719 73.011719 " fill-opacity="1" fill-rule="nonzero"/><path fill="#c8bba1" d="M -6.722656 76.445312 L -26.5625 76.445312 L -26.5625 57.324219 L -6.722656 57.324219 L -6.722656 76.445312 M 3.300781 54.605469 L -30.644531 47.582031 L -31.691406 51.671875 L -31.691406 80.46875 L -3.980469 86.199219 L 3.300781 54.605469 " fill-opacity="1" fill-rule="nonzero"/><path fill="#c8bba1" d="M 281.300781 9.90625 L 289.917969 9.90625 L 289.917969 43.554688 L 281.300781 43.554688 L 281.300781 9.90625 M 292.5 41.261719 L 305.441406 41.261719 L 305.441406 61.914062 L 292.5 61.914062 L 292.5 41.261719 M 277.820312 62.6875 C 278.507812 70.121094 278.875 77.753906 278.933594 85.574219 C 279.582031 84.929688 280.257812 84.289062 280.957031 83.640625 C 294.699219 71.054688 311.300781 66.164062 329.171875 69.347656 C 313.417969 37.835938 295.246094 9.300781 274.738281 -16.0625 L 255.601562 -16.0625 L 255.152344 -14.300781 C 264.039062 0.878906 274.441406 25.828125 277.820312 62.6875 " fill-opacity="1" fill-rule="nonzero"/><path fill="#c8bba1" d="M 45 20.691406 L 25.21875 16.664062 L 18.476562 45.964844 L 38.933594 50.199219 L 45 20.691406 " fill-opacity="1" fill-rule="nonzero"/><path fill="#c8bba1" d="M 210.152344 123.875 C 218.011719 123.875 224.382812 129.519531 224.382812 136.484375 C 224.382812 143.457031 218.011719 149.101562 210.152344 149.101562 C 202.296875 149.101562 195.929688 143.457031 195.929688 136.484375 C 195.929688 129.519531 202.296875 123.875 210.152344 123.875 M 210.152344 156.371094 C 222.515625 156.371094 232.574219 147.457031 232.574219 136.484375 C 232.574219 125.519531 222.515625 116.609375 210.152344 116.609375 C 197.792969 116.609375 187.734375 125.519531 187.734375 136.484375 C 187.734375 147.457031 197.792969 156.371094 210.152344 156.371094 " fill-opacity="1" fill-rule="nonzero"/><path fill="#c8bba1" d="M 283.15625 365.886719 C 284.558594 360.035156 286.785156 354.453125 289.816406 349.144531 L 167.148438 412.191406 L 177.894531 412.191406 L 193.339844 403.050781 C 193.339844 403.050781 265.773438 387.75 269.226562 386.214844 C 272.667969 384.6875 275.253906 396.925781 275.253906 396.925781 C 275.253906 396.925781 247.578125 404.328125 217.925781 412.191406 L 241.148438 412.191406 L 261.46875 406.863281 L 263.464844 412.191406 L 288.109375 412.191406 C 283.097656 400.183594 278.957031 383.5625 283.15625 365.886719 " fill-opacity="1" fill-rule="nonzero"/><path fill="#c8bba1" d="M -22.644531 224.664062 L 19.695312 223.746094 L 20.300781 215.007812 L -20.332031 214.59375 L -22.644531 224.664062 " fill-opacity="1" fill-rule="nonzero"/><path fill="#c8bba1" d="M 51.046875 116.980469 L 61.410156 116.980469 L 61.410156 133.8125 L 51.046875 133.8125 L 51.046875 116.980469 M 38.40625 140.613281 L 66.855469 145.980469 L 74.058594 114.308594 L 40.683594 107.460938 L 38.40625 140.613281 " fill-opacity="1" fill-rule="nonzero"/><path fill="#c8bba1" d="M 76.664062 102.878906 L 83.859375 71.28125 L 49.210938 64.113281 L 42.679688 95.839844 L 76.664062 102.878906 " fill-opacity="1" fill-rule="nonzero"/><path fill="#c8bba1" d="M 33.25 215.140625 L 32.671875 223.46875 L 44.148438 223.214844 L 38.566406 215.183594 L 33.25 215.140625 " fill-opacity="1" fill-rule="nonzero"/><path fill="#c8bba1" d="M 139.871094 354.097656 L 164.882812 347.210938 L 169.195312 365.554688 L 145.914062 372.445312 L 139.871094 354.097656 M 136.429688 346.449219 L 130.378906 331.914062 L 154.539062 324.253906 L 157.984375 340.328125 L 136.429688 346.449219 M 119.175781 293.667969 L 129.523438 289.082031 L 133.835938 304.367188 L 147.640625 301.320312 L 152.808594 319.671875 L 129.523438 325.019531 L 119.175781 293.667969 M 97.621094 332.679688 L 95.890625 327.320312 L 107.105469 324.253906 L 101.925781 314.324219 L 77.789062 320.441406 L 73.472656 305.910156 L 108.824219 294.433594 L 121.761719 328.855469 L 97.621094 332.679688 M 13.972656 352.566406 L 7.074219 357.160156 L -12.765625 353.328125 L -18.792969 341.09375 L 5.347656 325.789062 L 69.167969 307.433594 L 76.929688 330.382812 L 13.972656 352.566406 M 34.660156 390.042969 L 23.453125 384.6875 L 16.558594 357.910156 L 38.113281 349.511719 L 34.660156 390.042969 M 7.074219 404.578125 L -10.175781 388.515625 L 7.074219 360.980469 L 19.140625 385.449219 L 7.074219 404.578125 M -15.347656 377.804688 L -13.625 358.675781 L -2.417969 363.28125 L -15.347656 377.804688 M 160.289062 284.363281 L 174.980469 332.75 L 162.867188 335.640625 L 148.175781 287.261719 L 160.289062 284.363281 M 183.957031 350.859375 L 168.351562 278.707031 L 168.046875 278.648438 L 168.207031 278.042969 L 168.019531 277.160156 L 168.449219 277.09375 L 169.652344 272.3125 C 159.636719 272.871094 149.8125 274.453125 140.285156 277.09375 C 104.347656 287.050781 25.640625 311.910156 -31.691406 330.25 L -31.691406 342.707031 L -23.109375 339.566406 L -17.074219 354.847656 L -31.636719 351.984375 C -31.609375 353.964844 -31.5 355.921875 -31.28125 357.855469 L -19.65625 360.207031 L -21.378906 384.6875 L -21.613281 384.488281 C -12.851562 397.78125 0.925781 407.527344 16.996094 410.882812 L 22.59375 393.863281 L 38.113281 404.578125 L 19.285156 411.265625 C 22.609375 411.820312 26 412.191406 29.476562 412.191406 L 51.230469 412.191406 L 42.425781 397.679688 L 44.148438 347.976562 L 80.371094 334.972656 L 94.167969 338.035156 L 122.625 331.914062 L 139.011719 378.570312 L 95.789062 412.191406 L 114.613281 412.191406 L 163.648438 387.0625 C 170.894531 374.664062 177.648438 362.589844 183.957031 350.859375 " fill-opacity="1" fill-rule="nonzero"/><path fill="#c8bba1" d="M -5.859375 181.230469 L 1.039062 181.230469 L 1.039062 197.304688 L -5.859375 197.304688 L -5.859375 181.230469 M 9.65625 183.527344 L 14.835938 183.527344 L 14.835938 199.59375 L 9.65625 199.59375 L 9.65625 183.527344 M -17.695312 203.136719 L 21.097656 203.542969 L 22.832031 178.398438 L -10.832031 173.3125 L -17.695312 203.136719 " fill-opacity="1" fill-rule="nonzero"/><path fill="#c8bba1" d="M 15.894531 57.214844 L 8.625 88.804688 L 30.066406 93.238281 L 36.605469 61.496094 L 15.894531 57.214844 " fill-opacity="1" fill-rule="nonzero"/><path fill="#c8bba1" d="M -1.460938 132.582031 C 8.125 134.527344 17.335938 136.402344 25.628906 138.082031 L 27.914062 104.839844 L 5.96875 100.335938 L -1.460938 132.582031 " fill-opacity="1" fill-rule="nonzero"/><path fill="#c8bba1" d="M -8.242188 162.078125 L 23.617188 166.871094 L 24.816406 149.683594 C 18.6875 148.425781 8.230469 146.277344 -4.019531 143.722656 L -8.242188 162.078125 " fill-opacity="1" fill-rule="nonzero"/><path fill="#c8bba1" d="M 141.597656 105.503906 L 146.773438 90.214844 L 157.984375 90.980469 L 155.394531 99.394531 L 179.539062 104.746094 L 176.949219 115.449219 L 141.597656 105.503906 M 177.828125 123.800781 C 183.335938 112.808594 195.753906 105.128906 210.152344 105.128906 C 210.703125 105.128906 211.25 105.144531 211.78125 105.160156 L 213.222656 99.453125 L 161.601562 87.363281 L 129.203125 80.660156 C 127.484375 85.269531 125.613281 93.3125 129.351562 100.984375 C 133.53125 109.53125 143.742188 115.882812 159.730469 119.871094 L 159.679688 120.042969 L 177.828125 123.800781 " fill-opacity="1" fill-rule="nonzero"/><path fill="#c8bba1" d="M 301.125 139.929688 L 285.605469 139.929688 L 285.605469 125.390625 L 301.125 125.390625 L 301.125 139.929688 M 277.820312 114.132812 C 277.046875 123.652344 275.84375 133.425781 274.234375 143.421875 L 308.378906 150.347656 L 309.023438 150.441406 L 314.214844 120.730469 L 277.820312 114.132812 " fill-opacity="1" fill-rule="nonzero"/><path fill="#c8bba1" d="M 264.871094 63.121094 C 262.671875 40.300781 256.703125 21.234375 249.972656 6.234375 L 239.304688 48.609375 C 244.019531 49.9375 250.46875 52.355469 256.820312 56.554688 C 259.46875 58.3125 262.234375 60.476562 264.871094 63.121094 " fill-opacity="1" fill-rule="nonzero"/><path fill="#c8bba1" d="M 327.863281 103.976562 L 312.347656 103.976562 L 312.347656 100.152344 L 299.398438 100.152344 L 299.398438 93.269531 L 312.347656 93.269531 L 312.347656 90.214844 L 327.863281 90.214844 L 327.863281 103.976562 M 335.582031 82.597656 L 329.679688 81.230469 C 314.90625 77.675781 301.652344 81.179688 290.25 91.625 C 286 95.507812 282.800781 99.652344 280.597656 102.933594 L 349.667969 115.445312 C 345.246094 104.195312 340.539062 93.230469 335.582031 82.597656 " fill-opacity="1" fill-rule="nonzero"/><path fill="#c8bba1" d="M 249.074219 65.742188 C 244.570312 62.761719 239.976562 60.9375 236.460938 59.855469 L 228.5625 91.1875 L 265.703125 99.886719 C 265.796875 97.726562 265.863281 95.609375 265.914062 93.53125 C 264.433594 81.523438 258.804688 72.191406 249.074219 65.742188 " fill-opacity="1" fill-rule="nonzero"/><path fill="#c8bba1" d="M 74.339844 221.773438 L 175.222656 222.542969 L 169.195312 242.425781 C 169.195312 242.425781 114.863281 247.011719 96.753906 259.246094 L 74.339844 221.773438 M 85.546875 256.195312 L 62.273438 256.195312 L 62.273438 247.011719 L 85.546875 247.011719 L 85.546875 256.195312 M 54.5 274.539062 L 38.976562 274.539062 L 38.976562 249.316406 L 54.5 249.316406 L 54.5 274.539062 M 31.222656 281.433594 L 15.695312 281.433594 L 15.695312 250.839844 L 31.222656 250.839844 L 31.222656 281.433594 M 4.492188 287.558594 L -8.449219 287.558594 L -8.449219 273.789062 L 4.492188 273.789062 L 4.492188 287.558594 M 175.484375 249.15625 L 183.679688 216.675781 L 53.929688 215.34375 L 67.441406 234.007812 L -31.691406 236.28125 L -31.691406 245.484375 L 1.898438 245.484375 L 1.898438 262.3125 L -31.691406 262.3125 L -31.691406 273.027344 L -20.523438 273.027344 L -20.523438 282.199219 L -31.691406 282.199219 L -31.691406 305.863281 C 24.902344 287.789062 98.0625 264.742188 132.5625 255.175781 C 146.464844 251.324219 160.871094 249.363281 175.484375 249.15625 " fill-opacity="1" fill-rule="nonzero"/><path fill="#c8bba1" d="M 339.929688 243.1875 L 329.589844 238.601562 L 327.003906 249.316406 L 337.355469 251.59375 L 331.316406 263.847656 L 302.855469 258.488281 L 315.792969 227.125 L 350.289062 212.589844 L 364.085938 215.65625 L 339.929688 243.1875 M 391.671875 263.078125 L 380.464844 270.722656 L 345.96875 263.078125 L 357.179688 245.484375 L 391.671875 263.078125 M 320.96875 298.261719 L 295.082031 278.375 L 301.125 267.667969 L 365.796875 277.617188 L 320.96875 298.261719 M 251.117188 257.71875 L 254.566406 244.714844 L 303.714844 229.425781 L 286.464844 275.316406 L 251.117188 257.71875 M 270.945312 201.121094 L 329.589844 212.589844 L 258.871094 237.066406 C 258.871094 237.066406 270.085938 203.414062 270.945312 201.121094 M 386.945312 215.945312 L 262.910156 194.675781 C 257.097656 215.621094 249.699219 237.375 240.761719 259.863281 C 253.777344 264.304688 266.6875 270.074219 279.3125 277.207031 C 293.539062 285.269531 307.398438 295.171875 320.726562 306.585938 L 396.472656 267.785156 L 396.472656 253.691406 L 359.769531 239.371094 L 373.566406 221.773438 L 396.472656 248.675781 L 396.472656 239.652344 C 393.910156 234.878906 392.699219 230.792969 392.347656 229.496094 L 386.945312 215.945312 " fill-opacity="1" fill-rule="nonzero"/><path fill="#c8bba1" d="M 305.730469 161.585938 L 272.246094 154.785156 C 270.472656 164.171875 268.351562 173.75 265.867188 183.5 L 302.140625 189.71875 L 307.027344 161.773438 L 305.953125 161.628906 L 305.730469 161.585938 " fill-opacity="1" fill-rule="nonzero"/><path fill="#c8bba1" d="M 322.6875 122.265625 L 317.539062 151.617188 L 364.710938 158.140625 C 361.402344 147.59375 357.882812 137.304688 354.164062 127.230469 L 350.59375 127.324219 L 322.6875 122.265625 " fill-opacity="1" fill-rule="nonzero"/><path fill="#c8bba1" d="M 224.382812 107.789062 C 236.8125 112.652344 245.503906 123.679688 245.503906 136.484375 C 245.503906 136.851562 245.496094 137.210938 245.472656 137.582031 L 261.457031 140.824219 C 263.109375 130.449219 264.273438 120.703125 264.988281 111.578125 L 225.746094 102.386719 L 224.382812 107.789062 " fill-opacity="1" fill-rule="nonzero"/><path fill="#c8bba1" d="M 363.378906 115.511719 L 396.472656 114.640625 L 396.472656 96.75 L 351.195312 86.238281 C 355.453125 95.746094 359.523438 105.503906 363.378906 115.511719 " fill-opacity="1" fill-rule="nonzero"/><path fill="#c8bba1" d="M 378.742188 26.722656 L 385.003906 9.566406 C 382.628906 6.265625 379.921875 3.210938 376.960938 0.441406 L 361.492188 26.722656 L 350.289062 29.792969 L 345.96875 23.667969 L 358.042969 16.785156 L 352.871094 9.132812 L 334.761719 16.785156 L 313.011719 -16.0625 L 290.472656 -16.0625 C 309.3125 8.179688 326.160156 35.054688 340.890625 64.484375 C 344.785156 53.300781 351.03125 45.371094 359.546875 40.867188 C 371.78125 34.394531 384.121094 37.582031 385.867188 38.082031 L 396.273438 40.90625 C 396.035156 37.53125 395.585938 34.214844 394.808594 31.003906 L 378.742188 26.722656 " fill-opacity="1" fill-rule="nonzero"/><path fill="#c8bba1" d="M 366.019531 50.804688 C 359.109375 54.542969 354.09375 62.671875 351.394531 74.417969 L 396.472656 84.890625 L 396.472656 74.914062 L 374.433594 74.914062 L 374.433594 61.914062 L 396.472656 61.914062 L 396.472656 52.953125 L 381.765625 48.96875 C 381.496094 48.886719 373.671875 46.667969 366.019531 50.804688 " fill-opacity="1" fill-rule="nonzero"/><path fill="#c8bba1" d="M 327.863281 174.359375 L 334.761719 174.359375 L 334.761719 187.347656 L 327.863281 187.347656 L 327.863281 174.359375 M 341.730469 176.246094 L 349.199219 176.835938 L 347.734375 191.3125 L 340.261719 190.722656 L 341.730469 176.246094 M 359.769531 183.527344 L 367.527344 183.527344 L 367.527344 195.769531 L 359.769531 195.769531 L 359.769531 183.527344 M 310.617188 191.167969 L 381.949219 203.398438 L 368.75 170.308594 L 315.550781 162.953125 L 310.617188 191.167969 " fill-opacity="1" fill-rule="nonzero"/><path fill="#c8bba1" d="M 379.75 163.464844 L 395.714844 203.503906 L 396.472656 203.199219 L 396.472656 190.25 L 381.324219 141.460938 L 396.472656 148.320312 L 396.472656 137.449219 L 379.597656 130.75 L 396.472656 130.410156 L 396.472656 126.121094 L 367.628906 126.875 C 371.953125 138.757812 375.996094 150.953125 379.75 163.464844 " fill-opacity="1" fill-rule="nonzero"/><path fill="#c8bba1" d="M 36.453125 168.8125 L 189.90625 191.960938 L 192.554688 181.421875 L 37.597656 152.1875 L 36.453125 168.8125 " fill-opacity="1" fill-rule="nonzero"/><path fill="#c8bba1" d="M 210.152344 167.847656 C 209.855469 167.847656 209.550781 167.832031 209.246094 167.824219 L 208.035156 172.613281 L 253.058594 181.105469 C 255.625 171.003906 257.746094 161.359375 259.46875 152.195312 L 242.679688 148.78125 C 237.277344 159.988281 224.730469 167.847656 210.152344 167.847656 " fill-opacity="1" fill-rule="nonzero"/><path fill="#c8bba1" d="M 181.421875 278.226562 L 193.285156 333.09375 C 203.265625 313.660156 211.9375 295.207031 219.5 277.65625 C 207.25 274.40625 195.003906 272.585938 182.929688 272.195312 L 181.421875 278.226562 " fill-opacity="1" fill-rule="nonzero"/><path fill="#c8bba1" d="M 264.050781 329.613281 L 227.828125 311.261719 L 239.042969 290.617188 C 239.042969 290.617188 271.808594 303.609375 288.1875 319.671875 L 264.050781 329.613281 M 208.855469 357.910156 L 225.242188 318.90625 L 255.433594 336.496094 L 208.855469 357.910156 M 231.824219 281.410156 C 218.640625 311.921875 202.746094 343.683594 184.199219 376.539062 L 297.46875 318.515625 C 287.117188 310.152344 276.414062 302.800781 265.390625 296.5625 C 254.367188 290.316406 243.121094 285.289062 231.824219 281.410156 " fill-opacity="1" fill-rule="nonzero"/><path fill="#c8bba1" d="M 196.789062 32.84375 L 184.71875 32.84375 L 184.71875 20.609375 L 196.789062 20.609375 L 196.789062 32.84375 M 167.542969 28.066406 L 92.730469 12.839844 L 95.824219 0.917969 L 170.625 16.144531 L 167.542969 28.066406 M 217.644531 31.71875 C 209.761719 19.878906 195.574219 16.171875 182.902344 13.628906 C 160.316406 9.101562 116.699219 -0.0898438 76.332031 -8.648438 L 62.484375 12.488281 L 222.886719 45.132812 C 221.910156 39.992188 220.175781 35.503906 217.644531 31.71875 " fill-opacity="1" fill-rule="nonzero"/><path fill="#c8bba1" d="M 234.40625 240.546875 L 192.636719 233.746094 L 188.671875 249.445312 C 201.863281 250.226562 215.171875 252.464844 228.429688 256.09375 C 230.511719 250.832031 232.527344 245.621094 234.40625 240.546875 " fill-opacity="1" fill-rule="nonzero"/><path fill="#c8bba1" d="M 45.875 191.175781 L 61.410156 191.175781 L 61.410156 198.0625 L 45.875 198.0625 L 45.875 191.175781 M 34.042969 203.664062 L 186.566406 205.234375 L 187.082031 203.171875 L 35.648438 180.335938 L 34.042969 203.664062 " fill-opacity="1" fill-rule="nonzero"/><path fill="#c8bba1" d="M 130.378906 150.632812 L 95.890625 142.988281 L 98.476562 132.285156 L 132.972656 139.929688 L 130.378906 150.632812 M 174.796875 136.484375 C 174.796875 135.992188 174.8125 135.480469 174.835938 134.984375 L 82.476562 116.027344 L 75.277344 147.578125 L 195.378906 170.222656 L 196.589844 165.4375 C 183.8125 160.722656 174.796875 149.515625 174.796875 136.484375 " fill-opacity="1" fill-rule="nonzero"/><path fill="#c8bba1" d="M 202.679688 193.886719 L 202.800781 193.894531 C 206.128906 194.179688 232.285156 196.867188 244.101562 212.363281 C 246.285156 205.480469 248.269531 198.78125 250.085938 192.285156 L 205.207031 183.8125 L 202.679688 193.886719 " fill-opacity="1" fill-rule="nonzero"/><path fill="#c8bba1" d="M 201.429688 205.300781 L 200.882812 205.242188 L 199.851562 205.09375 L 195.453125 222.546875 L 236.855469 229.277344 C 236.855469 225.398438 235.765625 221.988281 233.554688 219.007812 C 224.835938 207.1875 201.664062 205.320312 201.429688 205.300781 " fill-opacity="1" fill-rule="nonzero"/><path fill="#29abe2" d="M 169.652344 272.3125 L 175.484375 249.15625 C 160.871094 249.363281 146.464844 251.324219 132.5625 255.175781 C 98.0625 264.742188 24.902344 287.789062 -31.691406 305.863281 L -31.691406 330.25 C 25.640625 311.910156 104.347656 287.050781 140.285156 277.09375 C 149.8125 274.453125 159.636719 272.871094 169.652344 272.3125 " fill-opacity="1" fill-rule="nonzero"/><path fill="#29abe2" d="M 320.664062 333.289062 C 319.429688 334.210938 318.289062 335.175781 317.140625 336.136719 C 335.984375 354.652344 353.351562 376.785156 368.832031 402.128906 C 376.179688 397.28125 382.375 390.875 387.070312 383.429688 C 372.546875 361.175781 356.449219 341.132812 339.199219 323.761719 L 320.664062 333.289062 " fill-opacity="1" fill-rule="nonzero"/><path fill="#29abe2" d="M 265.390625 296.5625 C 276.414062 302.800781 287.117188 310.152344 297.46875 318.515625 L 320.726562 306.585938 C 307.398438 295.171875 293.539062 285.269531 279.3125 277.207031 C 266.6875 270.074219 253.777344 264.304688 240.761719 259.863281 C 237.929688 266.972656 234.957031 274.152344 231.824219 281.410156 C 243.121094 285.289062 254.367188 290.316406 265.390625 296.5625 " fill-opacity="1" fill-rule="nonzero"/><path fill="#29abe2" d="M 219.5 277.65625 C 222.664062 270.300781 225.636719 263.121094 228.429688 256.09375 C 215.171875 252.464844 201.863281 250.226562 188.671875 249.445312 L 182.929688 272.195312 C 195.003906 272.585938 207.25 274.40625 219.5 277.65625 " fill-opacity="1" fill-rule="nonzero"/><path fill="#c8bba1" d="M 295.839844 368.167969 C 298.722656 356.199219 305.886719 345.484375 317.140625 336.136719 C 310.734375 329.839844 304.183594 323.933594 297.46875 318.515625 L 184.199219 376.539062 C 202.746094 343.683594 218.640625 311.921875 231.824219 281.410156 C 227.71875 280.003906 223.613281 278.753906 219.5 277.65625 C 211.9375 295.207031 203.265625 313.660156 193.285156 333.09375 L 181.421875 278.226562 L 182.929688 272.195312 C 178.484375 272.035156 174.054688 272.070312 169.652344 272.3125 L 168.449219 277.09375 L 168.019531 277.160156 L 168.207031 278.042969 L 168.046875 278.648438 L 168.351562 278.707031 L 183.957031 350.859375 C 177.648438 362.589844 170.894531 374.664062 163.648438 387.0625 L 114.613281 412.191406 L 167.148438 412.191406 L 289.816406 349.144531 C 286.785156 354.453125 284.558594 360.035156 283.15625 365.886719 C 278.957031 383.5625 283.097656 400.183594 288.109375 412.191406 L 302.792969 412.191406 C 297.21875 399.980469 292.171875 383.46875 295.839844 368.167969 " fill-opacity="1" fill-rule="nonzero"/><path fill="#f4f2ed" d="M 302.792969 412.191406 L 288.109375 412.191406 C 284.542969 403.652344 281.421875 392.78125 281.421875 380.863281 C 281.429688 376.015625 281.945312 370.996094 283.15625 365.886719 C 284.558594 360.035156 286.785156 354.453125 289.816406 349.144531 L 167.148438 412.191406 L 114.613281 412.191406 L 163.648438 387.0625 C 170.894531 374.664062 177.648438 362.589844 183.957031 350.859375 L 168.351562 278.707031 L 168.046875 278.648438 L 168.207031 278.042969 L 168.019531 277.160156 L 168.449219 277.09375 L 169.652344 272.3125 C 169.742188 272.308594 169.824219 272.300781 169.914062 272.296875 C 169.96875 272.296875 170.023438 272.292969 170.085938 272.292969 C 172.546875 272.15625 175.023438 272.097656 177.5 272.097656 C 177.503906 272.097656 177.503906 272.097656 177.511719 272.097656 C 177.511719 272.097656 177.511719 272.097656 177.515625 272.097656 C 179.257812 272.097656 181 272.128906 182.746094 272.191406 C 182.808594 272.191406 182.867188 272.191406 182.929688 272.195312 L 181.421875 278.226562 L 193.285156 333.09375 C 203.265625 313.660156 211.9375 295.207031 219.5 277.65625 C 223.613281 278.753906 227.71875 280.003906 231.824219 281.410156 C 218.640625 311.921875 202.746094 343.683594 184.199219 376.539062 L 297.46875 318.515625 C 304.183594 323.933594 310.734375 329.839844 317.140625 336.136719 C 305.886719 345.484375 298.722656 356.199219 295.839844 368.167969 C 294.976562 371.78125 294.59375 375.464844 294.59375 379.144531 C 294.589844 391.03125 298.539062 402.867188 302.792969 412.191406 " fill-opacity="1" fill-rule="nonzero"/><path fill="#c8bba1" d="M 354.164062 127.230469 C 357.882812 137.304688 361.402344 147.59375 364.710938 158.140625 L 317.539062 151.617188 L 322.6875 122.265625 L 350.59375 127.324219 L 354.164062 127.230469 M 368.75 170.308594 L 381.949219 203.398438 L 310.617188 191.167969 L 315.550781 162.953125 L 368.75 170.308594 M 308.378906 150.347656 L 274.234375 143.421875 C 275.84375 133.425781 277.046875 123.652344 277.820312 114.132812 L 314.214844 120.730469 L 309.023438 150.441406 L 308.378906 150.347656 M 302.140625 189.71875 L 265.867188 183.5 C 268.351562 173.75 270.472656 164.171875 272.246094 154.785156 L 305.730469 161.585938 L 305.953125 161.628906 L 307.027344 161.773438 L 302.140625 189.71875 M 228.5625 91.1875 L 236.460938 59.855469 C 239.976562 60.9375 244.570312 62.761719 249.074219 65.742188 C 258.804688 72.191406 264.433594 81.523438 265.914062 93.53125 C 265.863281 95.609375 265.796875 97.726562 265.703125 99.886719 L 228.5625 91.1875 M 261.457031 140.824219 L 245.472656 137.582031 C 245.496094 137.210938 245.503906 136.851562 245.503906 136.484375 C 245.503906 123.679688 236.8125 112.652344 224.382812 107.789062 L 225.746094 102.386719 L 264.988281 111.578125 C 264.273438 120.703125 263.109375 130.449219 261.457031 140.824219 M 253.058594 181.105469 L 208.035156 172.613281 L 209.246094 167.824219 C 209.550781 167.832031 209.855469 167.847656 210.152344 167.847656 C 224.730469 167.847656 237.277344 159.988281 242.679688 148.78125 L 259.46875 152.195312 C 257.746094 161.359375 255.625 171.003906 253.058594 181.105469 M 244.101562 212.363281 C 232.285156 196.867188 206.128906 194.179688 202.800781 193.894531 L 202.679688 193.886719 L 205.207031 183.8125 L 250.085938 192.285156 C 248.269531 198.78125 246.285156 205.480469 244.101562 212.363281 M 195.453125 222.546875 L 199.851562 205.09375 L 200.882812 205.242188 L 201.429688 205.300781 C 201.664062 205.320312 224.835938 207.1875 233.554688 219.007812 C 235.765625 221.988281 236.855469 225.398438 236.855469 229.277344 L 195.453125 222.546875 M 75.277344 147.578125 L 82.476562 116.027344 L 174.835938 134.984375 C 174.8125 135.480469 174.796875 135.992188 174.796875 136.484375 C 174.796875 149.515625 183.8125 160.722656 196.589844 165.4375 L 195.378906 170.222656 L 75.277344 147.578125 M 189.90625 191.960938 L 36.453125 168.8125 L 37.597656 152.1875 L 192.554688 181.421875 L 189.90625 191.960938 M 186.566406 205.234375 L 34.042969 203.664062 L 35.648438 180.335938 L 187.082031 203.171875 L 186.566406 205.234375 M 32.671875 223.46875 L 33.25 215.140625 L 38.566406 215.183594 L 44.148438 223.214844 L 32.671875 223.46875 M 8.625 88.804688 L 15.894531 57.214844 L 36.605469 61.496094 L 30.066406 93.238281 L 8.625 88.804688 M 25.628906 138.082031 C 17.335938 136.402344 8.125 134.527344 -1.460938 132.582031 L 5.96875 100.335938 L 27.914062 104.839844 L 25.628906 138.082031 M 23.617188 166.871094 L -8.242188 162.078125 L -4.019531 143.722656 C 8.230469 146.277344 18.6875 148.425781 24.816406 149.683594 L 23.617188 166.871094 M 21.097656 203.542969 L -17.695312 203.136719 L -10.832031 173.3125 L 22.832031 178.398438 L 21.097656 203.542969 M 19.695312 223.746094 L -22.644531 224.664062 L -20.332031 214.59375 L 20.300781 215.007812 L 19.695312 223.746094 M 25.21875 16.664062 L 45 20.691406 L 38.933594 50.199219 L 18.476562 45.964844 L 25.21875 16.664062 M 74.058594 114.308594 L 66.855469 145.980469 L 38.40625 140.613281 L 40.683594 107.460938 L 74.058594 114.308594 M 83.859375 71.28125 L 76.664062 102.878906 L 42.679688 95.839844 L 49.210938 64.113281 L 83.859375 71.28125 M 117.417969 105.40625 C 118.585938 107.820312 120.0625 110.074219 121.804688 112.214844 L 85.0625 104.617188 L 92.261719 73.011719 L 116.558594 78.042969 C 114.316406 84.539062 112.375 94.953125 117.417969 105.40625 M 210.152344 116.609375 C 222.515625 116.609375 232.574219 125.519531 232.574219 136.484375 C 232.574219 147.457031 222.515625 156.371094 210.152344 156.371094 C 197.792969 156.371094 187.734375 147.457031 187.734375 136.484375 C 187.734375 125.519531 197.792969 116.609375 210.152344 116.609375 M 129.351562 100.984375 C 125.613281 93.3125 127.484375 85.269531 129.203125 80.660156 L 161.601562 87.363281 L 213.222656 99.453125 L 211.78125 105.160156 C 211.25 105.144531 210.703125 105.128906 210.152344 105.128906 C 195.753906 105.128906 183.335938 112.808594 177.828125 123.800781 L 159.679688 120.042969 L 159.730469 119.871094 C 143.742188 115.882812 133.53125 109.53125 129.351562 100.984375 M 57.628906 23.257812 L 223.8125 57.097656 C 223.796875 57.242188 223.789062 57.390625 223.789062 57.535156 L 216.050781 88.25 L 164.816406 76.257812 L 164.714844 76.230469 L 51.539062 52.804688 L 57.628906 23.257812 M 76.332031 -8.648438 C 116.699219 -0.0898438 160.316406 9.101562 182.902344 13.628906 C 195.574219 16.171875 209.761719 19.878906 217.644531 31.71875 C 220.175781 35.503906 221.910156 39.992188 222.886719 45.132812 L 62.484375 12.488281 L 76.332031 -8.648438 M 249.972656 6.234375 C 256.703125 21.234375 262.671875 40.300781 264.871094 63.121094 C 262.234375 60.476562 259.46875 58.3125 256.820312 56.554688 C 250.46875 52.355469 244.019531 49.9375 239.304688 48.609375 L 249.972656 6.234375 M 290.25 91.625 C 301.652344 81.179688 314.90625 77.675781 329.679688 81.230469 L 335.582031 82.597656 C 340.539062 93.230469 345.246094 104.195312 349.667969 115.445312 L 280.597656 102.933594 C 282.800781 99.652344 286 95.507812 290.25 91.625 M 359.546875 40.867188 C 351.03125 45.371094 344.785156 53.300781 340.890625 64.484375 C 326.160156 35.054688 309.3125 8.179688 290.472656 -16.0625 L 274.738281 -16.0625 C 295.246094 9.300781 313.417969 37.835938 329.171875 69.347656 C 311.300781 66.164062 294.699219 71.054688 280.957031 83.640625 C 280.257812 84.289062 279.582031 84.929688 278.933594 85.574219 C 278.875 77.753906 278.507812 70.121094 277.820312 62.6875 C 274.441406 25.828125 264.039062 0.878906 255.152344 -14.300781 L 255.601562 -16.0625 L 237.914062 -16.0625 C 238.945312 -14.464844 239.996094 -12.792969 241.066406 -10.984375 L 229.230469 35.964844 C 228.121094 33.042969 226.742188 30.328125 225.070312 27.824219 C 215.894531 14.050781 200.296875 9.277344 184.804688 6.167969 C 162.726562 1.742188 120.472656 -7.152344 80.863281 -15.558594 L 81.195312 -16.0625 L 41.503906 -16.0625 C 48.410156 -14.582031 55.691406 -13.042969 63.203125 -11.441406 L 49.300781 9.800781 L 27.808594 5.421875 L 32.753906 -16.0625 L 29.476562 -16.0625 C 26.023438 -16.0625 22.648438 -15.699219 19.347656 -15.140625 L 15.195312 2.851562 L -9.222656 -2.121094 C -12.746094 0.785156 -15.90625 4.109375 -18.714844 7.714844 L 12.613281 14.09375 L 5.882812 43.355469 L -27.773438 36.386719 L -21.390625 11.40625 C -27.574219 20.699219 -31.320312 31.742188 -31.613281 43.609375 C -31.625 44.109375 -31.691406 44.609375 -31.691406 45.113281 L -31.691406 51.671875 L -30.644531 47.582031 L 3.300781 54.605469 L -3.980469 86.199219 L -31.691406 80.46875 L -31.691406 92.609375 L -6.640625 97.746094 L -14.066406 130.019531 C -19.941406 128.816406 -25.859375 127.609375 -31.691406 126.410156 L -31.691406 137.902344 C -26.617188 138.976562 -21.546875 140.046875 -16.617188 141.082031 L -20.921875 159.796875 L -31.691406 157.511719 L -31.691406 169.308594 L -23.507812 171.050781 L -30.667969 202.167969 L -31.691406 201.890625 L -31.691406 236.28125 L 67.441406 234.007812 L 53.929688 215.34375 L 183.679688 216.675781 L 175.484375 249.15625 C 179.867188 249.089844 184.261719 249.191406 188.671875 249.445312 L 192.636719 233.746094 L 234.40625 240.546875 C 232.527344 245.621094 230.511719 250.832031 228.429688 256.09375 C 232.542969 257.21875 236.65625 258.464844 240.761719 259.863281 C 249.699219 237.375 257.097656 215.621094 262.910156 194.675781 L 386.945312 215.945312 L 392.347656 229.496094 C 392.699219 230.792969 393.910156 234.878906 396.472656 239.652344 L 396.472656 203.199219 L 395.714844 203.503906 L 379.75 163.464844 C 375.996094 150.953125 371.953125 138.757812 367.628906 126.875 L 396.472656 126.121094 L 396.472656 114.640625 L 363.378906 115.511719 C 359.523438 105.503906 355.453125 95.746094 351.195312 86.238281 L 396.472656 96.75 L 396.472656 84.890625 L 351.394531 74.417969 C 354.09375 62.671875 359.109375 54.542969 366.019531 50.804688 C 373.671875 46.667969 381.496094 48.886719 381.765625 48.96875 L 396.472656 52.953125 L 396.472656 43.609375 C 396.457031 42.695312 396.339844 41.804688 396.273438 40.90625 L 385.867188 38.082031 C 384.121094 37.582031 371.78125 34.394531 359.546875 40.867188 " fill-opacity="1" fill-rule="nonzero"/><path fill="#f4f2ed" d="M 240.761719 259.863281 C 236.65625 258.464844 232.542969 257.21875 228.429688 256.09375 C 230.511719 250.832031 232.527344 245.621094 234.40625 240.546875 L 192.636719 233.746094 L 188.671875 249.445312 C 188.566406 249.441406 188.453125 249.429688 188.347656 249.421875 C 188.34375 249.421875 188.34375 249.421875 188.34375 249.421875 C 188.195312 249.417969 188.042969 249.40625 187.894531 249.402344 C 187.871094 249.402344 187.855469 249.394531 187.828125 249.394531 C 184.59375 249.222656 181.363281 249.136719 178.140625 249.136719 C 178.136719 249.136719 178.136719 249.136719 178.132812 249.136719 C 177.246094 249.136719 176.363281 249.140625 175.484375 249.15625 L 183.679688 216.675781 L 53.929688 215.34375 L 67.441406 234.007812 L -31.691406 236.28125 L -31.691406 201.890625 L -30.667969 202.167969 L -23.507812 171.050781 L -31.691406 169.308594 L -31.691406 157.511719 L -20.921875 159.796875 L -16.617188 141.082031 C -21.546875 140.046875 -26.617188 138.976562 -31.691406 137.902344 L -31.691406 126.410156 C -25.859375 127.609375 -19.941406 128.816406 -14.066406 130.019531 L -6.640625 97.746094 L -31.691406 92.609375 L -31.691406 80.46875 L -3.980469 86.199219 L 3.300781 54.605469 L -30.644531 47.582031 L -31.691406 51.671875 L -31.691406 45.113281 C -31.691406 44.609375 -31.625 44.109375 -31.613281 43.609375 C -31.320312 31.742188 -27.574219 20.699219 -21.390625 11.40625 L -27.773438 36.386719 L 5.882812 43.355469 L 12.613281 14.09375 L -18.714844 7.714844 C -15.90625 4.109375 -12.746094 0.785156 -9.222656 -2.121094 L 15.195312 2.851562 L 19.347656 -15.140625 C 22.648438 -15.699219 26.023438 -16.0625 29.476562 -16.0625 L 32.753906 -16.0625 L 27.808594 5.421875 L 49.300781 9.800781 L 63.203125 -11.441406 C 55.691406 -13.042969 48.410156 -14.582031 41.503906 -16.0625 L 81.195312 -16.0625 L 80.863281 -15.558594 C 120.472656 -7.152344 162.726562 1.742188 184.804688 6.167969 C 200.296875 9.277344 215.894531 14.050781 225.070312 27.824219 C 226.742188 30.328125 228.121094 33.042969 229.230469 35.964844 L 241.066406 -10.984375 C 239.996094 -12.792969 238.945312 -14.464844 237.914062 -16.0625 L 255.601562 -16.0625 L 255.152344 -14.300781 C 264.039062 0.878906 274.441406 25.828125 277.820312 62.6875 C 278.507812 70.121094 278.875 77.753906 278.933594 85.574219 C 279.582031 84.929688 280.257812 84.289062 280.957031 83.640625 C 291.976562 73.550781 304.832031 68.402344 318.714844 68.402344 C 322.144531 68.402344 325.628906 68.71875 329.171875 69.347656 C 313.417969 37.835938 295.246094 9.300781 274.738281 -16.0625 L 290.472656 -16.0625 C 309.3125 8.179688 326.160156 35.054688 340.890625 64.484375 C 344.785156 53.300781 351.03125 45.371094 359.546875 40.867188 C 365.492188 37.71875 371.460938 36.855469 376.230469 36.855469 C 381.273438 36.855469 384.96875 37.824219 385.867188 38.082031 L 396.273438 40.90625 C 396.339844 41.804688 396.457031 42.695312 396.472656 43.609375 L 396.472656 52.953125 L 381.765625 48.96875 C 381.761719 48.96875 381.753906 48.96875 381.753906 48.964844 C 381.539062 48.902344 379.367188 48.304688 376.273438 48.304688 C 376.269531 48.304688 376.269531 48.304688 376.269531 48.304688 C 376.265625 48.304688 376.257812 48.304688 376.253906 48.304688 C 373.382812 48.304688 369.71875 48.824219 366.089844 50.769531 C 366.0625 50.78125 366.039062 50.792969 366.019531 50.804688 C 359.109375 54.542969 354.09375 62.671875 351.394531 74.417969 L 396.472656 84.890625 L 396.472656 96.75 L 351.195312 86.238281 C 355.453125 95.746094 359.523438 105.503906 363.378906 115.511719 L 396.472656 114.640625 L 396.472656 126.121094 L 367.628906 126.875 C 371.953125 138.757812 375.996094 150.953125 379.75 163.464844 L 395.714844 203.503906 L 396.472656 203.199219 L 396.472656 239.652344 C 393.910156 234.878906 392.699219 230.792969 392.347656 229.496094 L 386.945312 215.945312 L 262.910156 194.675781 C 257.097656 215.621094 249.699219 237.375 240.761719 259.863281 M 236.855469 229.277344 C 236.855469 225.398438 235.765625 221.988281 233.554688 219.007812 C 224.835938 207.1875 201.664062 205.320312 201.429688 205.300781 L 200.882812 205.242188 L 199.851562 205.09375 L 195.453125 222.546875 L 236.855469 229.277344 M -22.644531 224.664062 L 19.695312 223.746094 L 20.300781 215.007812 L -20.332031 214.59375 L -22.644531 224.664062 M 32.671875 223.46875 L 44.148438 223.214844 L 38.566406 215.183594 L 33.25 215.140625 L 32.671875 223.46875 M 202.679688 193.886719 L 202.800781 193.894531 C 206.128906 194.179688 232.285156 196.867188 244.101562 212.363281 C 246.285156 205.480469 248.269531 198.78125 250.085938 192.285156 L 205.207031 183.8125 L 202.679688 193.886719 M 34.042969 203.664062 L 186.566406 205.234375 L 187.082031 203.171875 L 35.648438 180.335938 L 34.042969 203.664062 M -17.695312 203.136719 L 21.097656 203.542969 L 22.832031 178.398438 L -10.832031 173.3125 L -17.695312 203.136719 M 381.949219 203.398438 L 368.75 170.308594 L 315.550781 162.953125 L 310.617188 191.167969 L 381.949219 203.398438 M 36.453125 168.8125 L 189.90625 191.960938 L 192.554688 181.421875 L 37.597656 152.1875 L 36.453125 168.8125 M 265.867188 183.5 L 302.140625 189.71875 L 307.027344 161.773438 L 305.953125 161.628906 L 305.730469 161.585938 L 272.246094 154.785156 C 270.472656 164.171875 268.351562 173.75 265.867188 183.5 M 208.035156 172.613281 L 253.058594 181.105469 C 255.625 171.003906 257.746094 161.359375 259.46875 152.195312 L 242.679688 148.78125 C 237.277344 159.988281 224.730469 167.847656 210.152344 167.847656 C 209.855469 167.847656 209.550781 167.832031 209.246094 167.824219 L 208.035156 172.613281 M 75.277344 147.578125 L 195.378906 170.222656 L 196.589844 165.4375 C 183.8125 160.722656 174.796875 149.515625 174.796875 136.484375 C 174.796875 135.992188 174.8125 135.480469 174.835938 134.984375 L 82.476562 116.027344 L 75.277344 147.578125 M -8.242188 162.078125 L 23.617188 166.871094 L 24.816406 149.683594 C 18.6875 148.425781 8.230469 146.277344 -4.019531 143.722656 L -8.242188 162.078125 M 317.539062 151.617188 L 364.710938 158.140625 C 361.402344 147.59375 357.882812 137.304688 354.164062 127.230469 L 350.59375 127.324219 L 322.6875 122.265625 L 317.539062 151.617188 M 187.734375 136.484375 C 187.734375 147.457031 197.792969 156.371094 210.152344 156.371094 C 222.515625 156.371094 232.574219 147.457031 232.574219 136.484375 C 232.574219 125.519531 222.515625 116.609375 210.152344 116.609375 C 197.792969 116.609375 187.734375 125.519531 187.734375 136.484375 M 274.234375 143.421875 L 308.378906 150.347656 L 309.023438 150.441406 L 314.214844 120.730469 L 277.820312 114.132812 C 277.046875 123.652344 275.84375 133.425781 274.234375 143.421875 M 38.40625 140.613281 L 66.855469 145.980469 L 74.058594 114.308594 L 40.683594 107.460938 L 38.40625 140.613281 M 245.472656 137.582031 L 261.457031 140.824219 C 263.109375 130.449219 264.273438 120.703125 264.988281 111.578125 L 225.746094 102.386719 L 224.382812 107.789062 C 236.8125 112.652344 245.503906 123.679688 245.503906 136.484375 C 245.503906 136.851562 245.496094 137.210938 245.472656 137.582031 M -1.460938 132.582031 C 8.125 134.527344 17.335938 136.402344 25.628906 138.082031 L 27.914062 104.839844 L 5.96875 100.335938 L -1.460938 132.582031 M 159.679688 120.042969 L 177.828125 123.800781 C 183.335938 112.808594 195.753906 105.128906 210.152344 105.128906 C 210.703125 105.128906 211.25 105.144531 211.78125 105.160156 L 213.222656 99.453125 L 161.601562 87.363281 L 129.203125 80.660156 C 128.21875 83.308594 127.179688 87.085938 127.179688 91.273438 C 127.1875 94.382812 127.761719 97.714844 129.351562 100.984375 C 133.53125 109.53125 143.742188 115.882812 159.730469 119.871094 L 159.679688 120.042969 M 349.667969 115.445312 C 345.246094 104.195312 340.539062 93.230469 335.582031 82.597656 L 329.679688 81.230469 C 329.617188 81.210938 329.558594 81.203125 329.496094 81.183594 C 329.453125 81.171875 329.402344 81.164062 329.359375 81.152344 C 325.746094 80.308594 322.226562 79.886719 318.804688 79.886719 C 318.796875 79.886719 318.796875 79.886719 318.796875 79.886719 C 318.796875 79.886719 318.792969 79.886719 318.792969 79.886719 C 308.335938 79.886719 298.777344 83.816406 290.25 91.625 C 286 95.507812 282.800781 99.652344 280.597656 102.933594 L 349.667969 115.445312 M 121.804688 112.214844 C 120.0625 110.074219 118.585938 107.820312 117.417969 105.40625 C 115.074219 100.550781 114.238281 95.695312 114.242188 91.242188 C 114.242188 86.117188 115.355469 81.515625 116.558594 78.042969 L 92.261719 73.011719 L 85.0625 104.617188 L 121.804688 112.214844 M 42.679688 95.839844 L 76.664062 102.878906 L 83.859375 71.28125 L 49.210938 64.113281 L 42.679688 95.839844 M 228.5625 91.1875 L 265.703125 99.886719 C 265.796875 97.726562 265.863281 95.609375 265.914062 93.53125 C 264.433594 81.523438 258.804688 72.191406 249.074219 65.742188 C 244.570312 62.761719 239.976562 60.9375 236.460938 59.855469 L 228.5625 91.1875 M 8.625 88.804688 L 30.066406 93.238281 L 36.605469 61.496094 L 15.894531 57.214844 L 8.625 88.804688 M 51.539062 52.804688 L 164.714844 76.230469 L 164.816406 76.257812 L 216.050781 88.25 L 223.789062 57.535156 C 223.789062 57.390625 223.796875 57.242188 223.8125 57.097656 L 57.628906 23.257812 L 51.539062 52.804688 M 264.871094 63.121094 C 262.671875 40.300781 256.703125 21.234375 249.972656 6.234375 L 239.304688 48.609375 C 244.019531 49.9375 250.46875 52.355469 256.820312 56.554688 C 259.46875 58.3125 262.234375 60.476562 264.871094 63.121094 M 18.476562 45.964844 L 38.933594 50.199219 L 45 20.691406 L 25.21875 16.664062 L 18.476562 45.964844 M 222.886719 45.132812 C 221.910156 39.992188 220.175781 35.503906 217.644531 31.71875 C 209.761719 19.878906 195.574219 16.171875 182.902344 13.628906 C 160.316406 9.101562 116.699219 -0.0898438 76.332031 -8.648438 L 62.484375 12.488281 L 222.886719 45.132812 " fill-opacity="1" fill-rule="nonzero"/><path fill="#c8bba1" d="M 339.199219 323.761719 L 396.472656 294.339844 L 396.472656 267.785156 L 320.726562 306.585938 C 327.015625 311.964844 333.175781 317.707031 339.199219 323.761719 " fill-opacity="1" fill-rule="nonzero"/><path fill="#f4f2ed" d="M 339.199219 323.761719 C 333.175781 317.707031 327.015625 311.964844 320.726562 306.585938 L 396.472656 267.785156 L 396.472656 294.339844 L 339.199219 323.761719 " fill-opacity="1" fill-rule="nonzero"/><path fill="#29abe2" d="M 231.824219 281.410156 C 234.957031 274.152344 237.929688 266.972656 240.761719 259.863281 C 236.65625 258.464844 232.542969 257.21875 228.429688 256.09375 C 225.636719 263.121094 222.664062 270.300781 219.5 277.65625 C 223.613281 278.753906 227.71875 280.003906 231.824219 281.410156 " fill-opacity="1" fill-rule="nonzero"/><path fill="#49effa" d="M 231.824219 281.410156 C 227.71875 280.003906 223.613281 278.753906 219.5 277.65625 C 222.664062 270.300781 225.636719 263.121094 228.429688 256.09375 C 232.542969 257.21875 236.65625 258.464844 240.761719 259.863281 C 237.929688 266.972656 234.957031 274.152344 231.824219 281.410156 " fill-opacity="1" fill-rule="nonzero"/><path fill="#29abe2" d="M 182.929688 272.195312 L 188.671875 249.445312 C 184.261719 249.191406 179.867188 249.089844 175.484375 249.15625 L 169.652344 272.3125 C 174.054688 272.070312 178.484375 272.035156 182.929688 272.195312 " fill-opacity="1" fill-rule="nonzero"/><path fill="#49effa" d="M 169.652344 272.3125 L 175.484375 249.15625 C 176.363281 249.140625 177.25 249.136719 178.132812 249.136719 C 181.632812 249.136719 185.144531 249.238281 188.671875 249.445312 L 182.929688 272.195312 C 182.867188 272.191406 182.808594 272.191406 182.746094 272.191406 C 181 272.128906 179.257812 272.097656 177.515625 272.097656 C 177.511719 272.097656 177.511719 272.097656 177.511719 272.097656 C 177.503906 272.097656 177.503906 272.097656 177.5 272.097656 C 175.023438 272.097656 172.546875 272.15625 170.085938 272.292969 C 169.941406 272.296875 169.796875 272.300781 169.652344 272.3125 " fill-opacity="1" fill-rule="nonzero"/><path fill="#29abe2" d="M 317.140625 336.136719 C 318.289062 335.175781 319.429688 334.210938 320.664062 333.289062 L 339.199219 323.761719 C 333.175781 317.707031 327.015625 311.964844 320.726562 306.585938 L 297.46875 318.515625 C 304.183594 323.933594 310.734375 329.839844 317.140625 336.136719 " fill-opacity="1" fill-rule="nonzero"/><path fill="#49effa" d="M 317.140625 336.136719 C 310.734375 329.839844 304.183594 323.933594 297.46875 318.515625 L 320.726562 306.585938 C 327.015625 311.964844 333.175781 317.707031 339.199219 323.761719 L 320.664062 333.289062 C 319.429688 334.210938 318.289062 335.175781 317.140625 336.136719 " fill-opacity="1" fill-rule="nonzero"/><path fill="#009245" d="M 5.347656 325.789062 L -18.792969 341.09375 L -12.765625 353.328125 L 7.074219 357.160156 L 13.972656 352.566406 L 76.929688 330.382812 L 69.167969 307.433594 L 5.347656 325.789062 " fill-opacity="1" fill-rule="nonzero"/><path fill="#009245" d="M -10.175781 388.515625 L 7.074219 404.578125 L 19.140625 385.449219 L 7.074219 360.980469 L -10.175781 388.515625 " fill-opacity="1" fill-rule="nonzero"/><path fill="#009245" d="M 23.453125 384.6875 L 34.660156 390.042969 L 38.113281 349.511719 L 16.558594 357.910156 L 23.453125 384.6875 " fill-opacity="1" fill-rule="nonzero"/><path fill="#009245" d="M 122.625 331.914062 L 94.167969 338.035156 L 80.371094 334.972656 L 44.148438 347.976562 L 42.425781 397.679688 L 51.230469 412.191406 L 95.789062 412.191406 L 139.011719 378.570312 L 122.625 331.914062 " fill-opacity="1" fill-rule="nonzero"/><path fill="#009245" d="M 73.472656 305.910156 L 77.789062 320.441406 L 101.925781 314.324219 L 107.105469 324.253906 L 95.890625 327.320312 L 97.621094 332.679688 L 121.761719 328.855469 L 108.824219 294.433594 L 73.472656 305.910156 " fill-opacity="1" fill-rule="nonzero"/><path fill="#009245" d="M 147.640625 301.320312 L 133.835938 304.367188 L 129.523438 289.082031 L 119.175781 293.667969 L 129.523438 325.019531 L 152.808594 319.671875 L 147.640625 301.320312 " fill-opacity="1" fill-rule="nonzero"/><path fill="#009245" d="M 154.539062 324.253906 L 130.378906 331.914062 L 136.429688 346.449219 L 157.984375 340.328125 L 154.539062 324.253906 " fill-opacity="1" fill-rule="nonzero"/><path fill="#009245" d="M 164.882812 347.210938 L 139.871094 354.097656 L 145.914062 372.445312 L 169.195312 365.554688 L 164.882812 347.210938 " fill-opacity="1" fill-rule="nonzero"/><path fill="#009245" d="M 352.871094 9.132812 L 358.042969 16.785156 L 345.96875 23.667969 L 350.289062 29.792969 L 361.492188 26.722656 L 376.960938 0.441406 C 370.058594 -6.003906 361.679688 -10.886719 352.382812 -13.59375 L 335.632812 -6.164062 L 328.523438 -16.0625 L 313.011719 -16.0625 L 334.761719 16.785156 L 352.871094 9.132812 " fill-opacity="1" fill-rule="nonzero"/><path fill="#009245" d="M 270.945312 201.121094 C 270.085938 203.414062 258.871094 237.066406 258.871094 237.066406 L 329.589844 212.589844 L 270.945312 201.121094 " fill-opacity="1" fill-rule="nonzero"/><path fill="#009245" d="M 254.566406 244.714844 L 251.117188 257.71875 L 286.464844 275.316406 L 303.714844 229.425781 L 254.566406 244.714844 " fill-opacity="1" fill-rule="nonzero"/><path fill="#009245" d="M 315.792969 227.125 L 302.855469 258.488281 L 331.316406 263.847656 L 337.355469 251.59375 L 327.003906 249.316406 L 329.589844 238.601562 L 339.929688 243.1875 L 364.085938 215.65625 L 350.289062 212.589844 L 315.792969 227.125 " fill-opacity="1" fill-rule="nonzero"/><path fill="#009245" d="M 295.082031 278.375 L 320.96875 298.261719 L 365.796875 277.617188 L 301.125 267.667969 L 295.082031 278.375 " fill-opacity="1" fill-rule="nonzero"/><path fill="#009245" d="M 345.96875 263.078125 L 380.464844 270.722656 L 391.671875 263.078125 L 357.179688 245.484375 L 345.96875 263.078125 " fill-opacity="1" fill-rule="nonzero"/><path fill="#009245" d="M 359.769531 239.371094 L 396.472656 253.691406 L 396.472656 248.675781 L 373.566406 221.773438 L 359.769531 239.371094 " fill-opacity="1" fill-rule="nonzero"/><path fill="#009245" d="M 175.222656 222.542969 L 74.339844 221.773438 L 96.753906 259.246094 C 114.863281 247.011719 169.195312 242.425781 169.195312 242.425781 L 175.222656 222.542969 " fill-opacity="1" fill-rule="nonzero"/><path fill="#009245" d="M 220.9375 1.480469 L 224.617188 -16.0625 L 209.605469 -16.0625 L 207.996094 -6.917969 L 220.9375 1.480469 " fill-opacity="1" fill-rule="nonzero"/><path fill="#009245" d="M 389.949219 374.746094 C 389.949219 374.746094 390.652344 374.601562 391.777344 374.378906 C 394.609375 367.597656 396.289062 360.238281 396.472656 352.519531 L 396.472656 304.949219 L 356.316406 328.855469 L 389.949219 374.746094 " fill-opacity="1" fill-rule="nonzero"/><path fill="#009245" d="M 310.617188 370.921875 L 300.269531 376.269531 L 304.578125 390.042969 L 349.421875 383.917969 L 321.828125 347.210938 L 304.578125 358.675781 L 310.617188 370.921875 " fill-opacity="1" fill-rule="nonzero"/><path fill="#009245" d="M 227.828125 311.261719 L 264.050781 329.613281 L 288.1875 319.671875 C 271.808594 303.609375 239.042969 290.617188 239.042969 290.617188 L 227.828125 311.261719 " fill-opacity="1" fill-rule="nonzero"/><path fill="#009245" d="M 208.855469 357.910156 L 255.433594 336.496094 L 225.242188 318.90625 Z M 208.855469 357.910156 " fill-opacity="1" fill-rule="nonzero"/><path fill="#009245" d="M 210.152344 149.101562 C 218.011719 149.101562 224.382812 143.457031 224.382812 136.484375 C 224.382812 129.519531 218.011719 123.875 210.152344 123.875 C 202.296875 123.875 195.929688 129.519531 195.929688 136.484375 C 195.929688 143.457031 202.296875 149.101562 210.152344 149.101562 " fill-opacity="1" fill-rule="nonzero"/><path fill="#808080" d="M 186.519531 64.679688 L 205.308594 69.277344 L 207.371094 62.648438 L 164.984375 52.253906 L 163.078125 58.394531 L 144.28125 53.785156 L 142.226562 60.410156 L 184.613281 70.804688 L 186.519531 64.679688 " fill-opacity="1" fill-rule="nonzero"/><path fill="#808080" d="M 179.539062 104.746094 L 155.394531 99.394531 L 157.984375 90.980469 L 146.773438 90.214844 L 141.597656 105.503906 L 176.949219 115.449219 L 179.539062 104.746094 " fill-opacity="1" fill-rule="nonzero"/><path fill="#808080" d="M -8.449219 287.558594 L 4.492188 287.558594 L 4.492188 273.789062 L -8.449219 273.789062 L -8.449219 287.558594 " fill-opacity="1" fill-rule="nonzero"/><path fill="#808080" d="M 1.898438 245.484375 L -31.691406 245.484375 L -31.691406 262.3125 L 1.898438 262.3125 L 1.898438 245.484375 " fill-opacity="1" fill-rule="nonzero"/><path fill="#808080" d="M 15.695312 281.433594 L 31.222656 281.433594 L 31.222656 250.839844 L 15.695312 250.839844 L 15.695312 281.433594 " fill-opacity="1" fill-rule="nonzero"/><path fill="#808080" d="M 95.890625 142.988281 L 130.378906 150.632812 L 132.972656 139.929688 L 98.476562 132.285156 L 95.890625 142.988281 " fill-opacity="1" fill-rule="nonzero"/><path fill="#808080" d="M 128.667969 49.671875 L 128.667969 40.496094 L 84.6875 40.496094 L 84.6875 55.03125 L 116.582031 55.03125 L 116.582031 49.671875 L 128.667969 49.671875 " fill-opacity="1" fill-rule="nonzero"/><path fill="#808080" d="M 305.441406 41.261719 L 292.5 41.261719 L 292.5 61.914062 L 305.441406 61.914062 L 305.441406 41.261719 " fill-opacity="1" fill-rule="nonzero"/><path fill="#808080" d="M 285.605469 139.929688 L 301.125 139.929688 L 301.125 125.390625 L 285.605469 125.390625 L 285.605469 139.929688 " fill-opacity="1" fill-rule="nonzero"/><path fill="#808080" d="M 334.761719 174.359375 L 327.863281 174.359375 L 327.863281 187.347656 L 334.761719 187.347656 L 334.761719 174.359375 " fill-opacity="1" fill-rule="nonzero"/><path fill="#808080" d="M 349.199219 176.835938 L 341.730469 176.246094 L 340.261719 190.722656 L 347.734375 191.3125 L 349.199219 176.835938 " fill-opacity="1" fill-rule="nonzero"/><path fill="#808080" d="M 367.527344 183.527344 L 359.769531 183.527344 L 359.769531 195.769531 L 367.527344 195.769531 L 367.527344 183.527344 " fill-opacity="1" fill-rule="nonzero"/><path fill="#808080" d="M 174.980469 332.75 L 160.289062 284.363281 L 148.175781 287.261719 L 162.867188 335.640625 L 174.980469 332.75 " fill-opacity="1" fill-rule="nonzero"/><path fill="#808080" d="M 61.410156 191.175781 L 45.875 191.175781 L 45.875 198.0625 L 61.410156 198.0625 L 61.410156 191.175781 " fill-opacity="1" fill-rule="nonzero"/><path fill="#808080" d="M 61.410156 116.980469 L 51.046875 116.980469 L 51.046875 133.8125 L 61.410156 133.8125 L 61.410156 116.980469 " fill-opacity="1" fill-rule="nonzero"/><path fill="#808080" d="M 92.730469 12.839844 L 167.542969 28.066406 L 170.625 16.144531 L 95.824219 0.917969 L 92.730469 12.839844 " fill-opacity="1" fill-rule="nonzero"/><path fill="#808080" d="M 38.976562 274.539062 L 54.5 274.539062 L 54.5 249.316406 L 38.976562 249.316406 L 38.976562 274.539062 " fill-opacity="1" fill-rule="nonzero"/><path fill="#808080" d="M 374.433594 74.914062 L 396.472656 74.914062 L 396.472656 61.914062 L 374.433594 61.914062 L 374.433594 74.914062 " fill-opacity="1" fill-rule="nonzero"/><path fill="#808080" d="M 312.347656 93.269531 L 320.097656 93.269531 L 320.097656 100.152344 L 312.347656 100.152344 L 312.347656 103.976562 L 327.863281 103.976562 L 327.863281 90.214844 L 312.347656 90.214844 L 312.347656 93.269531 " fill-opacity="1" fill-rule="nonzero"/><path fill="#808080" d="M 289.917969 9.90625 L 281.300781 9.90625 L 281.300781 43.554688 L 289.917969 43.554688 L 289.917969 9.90625 " fill-opacity="1" fill-rule="nonzero"/><path fill="#808080" d="M 320.097656 93.269531 L 299.398438 93.269531 L 299.398438 100.152344 L 320.097656 100.152344 L 320.097656 93.269531 " fill-opacity="1" fill-rule="nonzero"/><path fill="#808080" d="M 116.582031 49.671875 L 116.582031 59.617188 L 132.113281 59.617188 L 132.113281 49.671875 L 116.582031 49.671875 " fill-opacity="1" fill-rule="nonzero"/><path fill="#808080" d="M 184.71875 32.84375 L 196.789062 32.84375 L 196.789062 20.609375 L 184.71875 20.609375 L 184.71875 32.84375 " fill-opacity="1" fill-rule="nonzero"/><path fill="#808080" d="M 1.039062 181.230469 L -5.859375 181.230469 L -5.859375 197.304688 L 1.039062 197.304688 L 1.039062 181.230469 " fill-opacity="1" fill-rule="nonzero"/><path fill="#808080" d="M 14.835938 183.527344 L 9.65625 183.527344 L 9.65625 199.59375 L 14.835938 199.59375 L 14.835938 183.527344 " fill-opacity="1" fill-rule="nonzero"/><path fill="#808080" d="M 62.273438 256.195312 L 85.546875 256.195312 L 85.546875 247.011719 L 62.273438 247.011719 L 62.273438 256.195312 " fill-opacity="1" fill-rule="nonzero"/></svg>